<svg xmlns="http://www.w3.org/2000/svg" xmlns:xlink="http://www.w3.org/1999/xlink" width="896" height="360" viewBox="0 0 896.7 360.5">
  <defs>
    <style>
      .circuits__lower, .circuits__upper, .circuits__rect, .circuits__middle {
        fill: none;
      }

      .circuits__lower, .circuits__upper {
        stroke-linecap: round;
        stroke-linejoin: round;
        stroke-width: 1.5px;
      }

      .circuits__lower {
        stroke: url(#circuits-linear-gradient);
      }

      .circuits__upper {
      stroke: url(#circuits-linear-gradient-2);
      }

      .circuits__rect {
        stroke: #99004d;
      }

      .circuits__rect, .circuits__middle {
        stroke-miterlimit: 10;
      }

      .circuits__rect_fat {
        stroke-width: 3px;
      }

      .circuits__middle {
        stroke: #63153a;
      }
    </style>
    <linearGradient id="circuits-linear-gradient" x1="448" y1="240" x2="448" y2="360" gradientUnits="userSpaceOnUse">
      <stop offset="0.8" stop-color="#63153a"/>
      <stop offset="1" stop-color="#2e2e2e" stop-opacity="0"/>
    </linearGradient>
    <linearGradient id="circuits-linear-gradient-2" x1="448" y1="120" x2="448" y2="0" xlink:href="#circuits-linear-gradient"/>
  </defs>
  <g class="body" data-theme="">
    <path class="circuits__lower" d="M55.1,354.8V309.4l7.6-7.6V283.5h7.4m0-23.4H57.7v39.8l-6.4,6.6v48.2"/>
    <path class="circuits__rect circuits__rect_fat" d="M71.4,254.6h11v11h-11Zm0,34.4h11V278h-11Z"/>
    <path class="circuits__upper" d="M12.1.8,43.9,30.1V99.3l6.3,6.3H63.3l5.1-5.1L57.1,89.1m-4,39.1L34.6,109.9V30.4L6.2,4.6m20,113.9V31.8L.8,9.8"/>
    <path class="circuits__rect circuits__rect_slim" d="M16.4,128.4l9.8-9.8,9.8,9.8-9.8,9.8ZM53,147.8l9.8-9.8L53,128.2,43.3,138Zm4.1-58.1,9.8-9.8-9.8-9.8-9.8,9.8Z"/>
    <path class="circuits__middle" d="M167.9,259.5l-17.6-17.6V122.5l31-31m46.5-19.7-56.5,56.6V234L187,249.7M203.3,81.3l-42.6,42.6V240.9l42.5,41.7"/>
    <path class="circuits__upper" d="M181.3,71.9V10.7m22,50.9V10.6m34.4,51.3V10.6"/>
    <path class="circuits__lower" d="M168.1,279.4v80.4m35.2-57.4v57.4m16.8,0V263.9l-13.6-14"/>
    <path class="circuits__rect circuits__rect_slim" d="M171.4,81.6l9.8-9.8,9.8,9.8-9.8,9.8Zm31.9-.5,9.8-9.8-9.8-9.8-9.8,9.8Zm34.3.5,9.8-9.8-9.8-9.8-9.8,9.8Z"/>
    <path class="circuits__rect circuits__rect_slim" d="M158.1,269.4l9.8-9.8,9.8,9.8-9.8,9.8Zm45,32.9,9.8-9.8-9.8-9.8-9.8,9.8Zm-6.4-42.8,9.8-9.8-9.8-9.8-9.8,9.8Z"/>
    <path class="circuits__lower" d="M826.6,283.5H834v18.3l7.6,7.6v45.3m3.8,0V306.5l-6.4-6.6V260.1H826.6"/>
    <path class="circuits__rect circuits__rect_fat" d="M825.4,265.6h-11v-11h11Zm0,12.4h-11v11h11Z"/>
    <path class="circuits__lower" d="M839.6,89.1l-11.3,11.3,5.1,5.1h13.1l6.3-6.3V30.1L884.7.8m5.9,3.9L862.1,30.4v79.4l-18.4,18.4M896,9.8l-25.4,22v86.8"/>
    <path class="circuits__rect circuits__rect_slim" d="M870.6,138.1l-9.8-9.8,9.8-9.8,9.8,9.8Zm-17.1-.2-9.8-9.8-9.8,9.8,9.8,9.8Zm-4.1-58.1-9.8-9.8-9.8,9.8,9.8,9.8Z"/>
    <path class="circuits__middle" d="M715.5,91.5l31,31V241.9l-17.6,17.6m-19.1-9.9L725.5,234V128.5L669,71.9m24.6,210.8,42.5-41.7V123.9L693.5,81.3"/>
    <path class="circuits__lower" d="M715.5,10.7V71.9m-22-61.2V61.6M659.1,10.6V61.9"/>
    <path class="circuits__lower" d="M728.6,359.8V279.4m-35.2,80.4V302.4m-3.2-52.4-13.6,14v95.8"/>
    <path class="circuits__rect circuits__rect_slim" d="M715.6,91.4l-9.8-9.8,9.8-9.8,9.8,9.8ZM703.3,71.4l-9.8-9.8-9.8,9.8,9.8,9.8Zm-34.3.5-9.8-9.8-9.8,9.8,9.8,9.8Z"/>
    <path class="circuits__rect circuits__rect_slim" d="M728.8,279.1l-9.8-9.8,9.8-9.8,9.8,9.8Zm-25.4,13.3-9.8-9.8-9.8,9.8,9.8,9.8Zm6.4-42.8-9.8-9.8-9.8,9.8,9.8,9.8Z"/>
  </g>
</svg>
