<svg xmlns="http://www.w3.org/2000/svg" viewBox="0 0 382.68 246.74">
  <defs>
    <style>
      .cls-1, .cls-11, .cls-2 {
        fill: #fff;
      }

      .cls-11, .cls-12, .cls-2 {
        isolation: isolate;
      }

      .cls-2 {
        font-size: 17.57px;
        font-family: ArialMT, Arial;
      }

      .cls-3 {
        letter-spacing: -0.04em;
      }

      .cls-4 {
        letter-spacing: -0.06em;
      }

      .cls-5 {
        letter-spacing: -0.02em;
      }

      .cls-6 {
        letter-spacing: 0.01em;
      }

      .cls-7 {
        letter-spacing: -0.04em;
      }

      .cls-8 {
        letter-spacing: 0em;
      }

      .cls-9 {
        letter-spacing: -0.01em;
      }

      .cls-10 {
        letter-spacing: -0.03em;
      }

      .cls-11, .cls-12 {
        font-size: 70.27px;
        font-family: Arial-BoldMT, Arial;
        font-weight: 700;
      }

      .cls-12 {
        fill: none;
        stroke: #252525;
        stroke-width: 1.5px;
      }
    </style>
  </defs>
  <title>mirealogo_3</title>
  <g id="Layer_2" data-name="Layer 2">
    <g id="Body">
      <g id="Contacts">
        <g id="Mirea_Logo" data-name="Mirea Logo">
          <path class="cls-1" d="M117.81,191.82v-7.6h0a7,7,0,0,0-2.2-3.5c-.3-.3-.6-.4-.9-.7a62.2,62.2,0,1,1,65.1-67.5,9.87,9.87,0,0,0,1.9,3.7,17.41,17.41,0,0,0,2.2,1.8h7.9A73.9,73.9,0,1,0,44,118c-.2,40.5,33.1,73.8,73.8,73.8Z"/>
          <path class="cls-1" d="M117.21,150.27A32.25,32.25,0,1,1,149.46,118,32.29,32.29,0,0,1,117.21,150.27Zm0-63A30.75,30.75,0,1,0,148,118,30.78,30.78,0,0,0,117.21,87.27Z"/>
          <path class="cls-1" d="M135.81,136.87a.75.75,0,0,1-.53-1.28,24.81,24.81,0,0,0,7.28-17.67A25.35,25.35,0,1,0,99.15,135.6a.75.75,0,1,1-1.08,1,26.82,26.82,0,1,1,46-18.72,26.3,26.3,0,0,1-7.72,18.73A.75.75,0,0,1,135.81,136.87Z"/>
          <path class="cls-1" d="M101.51,131.77a.75.75,0,0,1-.57-.26,21.31,21.31,0,1,1,37.62-14,20.4,20.4,0,0,1-5.5,14,.75.75,0,1,1-1.1-1,18.92,18.92,0,0,0,5.1-13,20.05,20.05,0,1,0-35,13,.75.75,0,0,1-.57,1.24Z"/>
          <path class="cls-1" d="M102.91,145.22l-1-.4a1.31,1.31,0,0,0,.4,1.3Zm28.7,0,.6,1c.4-.3.7-.9.4-1.3Zm-14.4-37.6,1-.4a1.06,1.06,0,0,0-2,0Zm-13.3,38,14.3-37.8-2-.7-14.3,37.8Zm12.3-37.6,14.3,37.8,2-.7-14.3-37.8Zm-13.8,38.2a29.25,29.25,0,0,0,29.7,0l-1-1.9a27.08,27.08,0,0,1-27.5,0Z"/>
          <path class="cls-1" d="M102.31,144.32a1.08,1.08,0,0,0,1.2,1.8Zm22.1-13.3.6.9a1,1,0,0,0,.4-1.2,1.09,1.09,0,0,0-1-.7v1ZM110,131l-.6-.9a1,1,0,0,0-.4,1.2,1.09,1.09,0,0,0,1,.7v-1Zm13.1-8.2a1.08,1.08,0,0,0-1.2-1.8Zm-19.7,23.4,22.1-14.3-1.2-1.9-22.1,14.3Zm21-16.1h-15.6v2.2h15.6Zm-14.4,1.8,13-9.1-1.3-1.8-13,9.1Z"/>
          <text class="cls-2" transform="translate(129.22 197.12)"><tspan class="cls-3">Р</tspan><tspan x="10.95" y="0">оссийский </tspan></text>
          <text class="cls-2" transform="translate(129.22 219.08)"><tspan class="cls-4">Т</tspan><tspan class="cls-5" x="9.74" y="0">е</tspan><tspan x="19.13" y="0">хн</tspan><tspan class="cls-5" x="37.61" y="0">о</tspan><tspan class="cls-6" x="47" y="0">л</tspan><tspan x="57.45" y="0">огический </tspan></text>
          <text class="cls-2" transform="translate(129.22 241.03)"><tspan class="cls-7">У</tspan><tspan class="cls-8" x="10.37" y="0">ни</tspan><tspan class="cls-9" x="29.88" y="0">в</tspan><tspan x="39.02" y="0">ерси</tspan><tspan class="cls-9" x="77.16" y="0">т</tspan><tspan class="cls-10" x="85.01" y="0">е</tspan><tspan x="94.19" y="0">т</tspan></text>
          <text class="cls-11" transform="translate(124.83 178.95)">МИРЭА</text>
          <text class="cls-12" transform="translate(124.83 178.95)">МИРЭА</text>
          <path class="cls-1" d="M117.81,214.62v-7.7h0a7,7,0,0,0-2.2-3.5c-.3-.3-.6-.4-.9-.7a84.83,84.83,0,1,1,87.6-90.5,9.94,9.94,0,0,0,1.9,4,17.41,17.41,0,0,0,2.2,1.8h7.8a96.59,96.59,0,1,0-96.4,96.6Z"/>
          <path class="cls-1" d="M117.81,235.72v-7.6h0a7,7,0,0,0-2.2-3.5c-.3-.3-.6-.4-.9-.7a106.17,106.17,0,0,1-103.1-108.6c1.3-56.2,46.8-102,103-103.6,58.2-1.7,106.4,43.7,109.2,100.7a8.68,8.68,0,0,0,1.9,3.6,17.41,17.41,0,0,0,2.2,1.8h7.7A117.79,117.79,0,0,0,115.91,0C52.51,1,.81,52.82,0,116.32a117.72,117.72,0,0,0,117.8,119.4h0Z"/>
        </g>
      </g>
    </g>
  </g>
</svg>
