<svg xmlns="http://www.w3.org/2000/svg" width="230" height="245" viewBox="0 0 230.4 245.4">
  <defs>
    <style>
      .cls-1, .cls-2, .cls-4 {
        fill: #fff;
      }

      .cls-2, .cls-4 {
        isolation: isolate;
      }

      .cls-2 {
        font-size: 19.23px;
        font-family: ProximaNova-Regular, Proxima Nova;
      }

      .cls-3 {
        letter-spacing: -0.04em;
      }

      .cls-4 {
        font-size: 21.97px;
        font-family: ProximaNova-Bold, Proxima Nova;
        font-weight: 700;
      }

      .cls-5 {
        letter-spacing: -0.07em;
      }

      .cls-6 {
        letter-spacing: -0.02em;
      }

      .cls-7 {
        letter-spacing: -0.03em;
      }
    </style>
  </defs>
  <title>radioroom_1</title>
  <g id="Layer_2" data-name="Layer 2">
    <g id="Body">
      <g>
        <path class="cls-1" d="M165.4,30.4H69.3a5.5,5.5,0,0,0-5.5,5.5v74.7a5.5,5.5,0,0,0,5.5,5.5h96.1a5.5,5.5,0,0,0,5.5-5.5V35.9A5.5,5.5,0,0,0,165.4,30.4ZM103.1,98.3a25,25,0,1,1,25-25A25,25,0,0,1,103.1,98.3Zm42.8-35.7a7.1,7.1,0,1,1,7.1-7.1A7.1,7.1,0,0,1,145.9,62.6Z"/>
        <circle class="cls-1" cx="145.9" cy="30.4" r="7.1"/>
        <path class="cls-1" d="M81.6,112.6H95.9v9.3a1.3,1.3,0,0,1-1.4,1.4H83a1.3,1.3,0,0,1-1.4-1.4Z"/>
        <path class="cls-1" d="M138.8,112.6h14.3v9.3a1.3,1.3,0,0,1-1.4,1.4H140.2a1.3,1.3,0,0,1-1.4-1.4Z"/>
        <circle class="cls-1" cx="103.1" cy="3.6" r="3.6"/>
        <rect class="cls-1" x="99.9" y="15.4" width="50" height="1" transform="translate(25.7 -61.6) rotate(30.7)"/>
      </g>
      <text class="cls-2" transform="translate(67.3 188)">РТУ МИР<tspan class="cls-3" x="79.7" y="0">Э</tspan><tspan x="92" y="0">А</tspan></text>
      <text class="cls-4" transform="translate(46.7 164.2)"><tspan class="cls-5">Р</tspan><tspan x="12.1" y="0">АДИО</tspan><tspan class="cls-6" x="76.3" y="0">Р</tspan><tspan x="89.5" y="0">УБКА</tspan></text>
      <text class="cls-2" transform="translate(0 240.2)">Наша страница В<tspan class="cls-7" x="151.5" y="0">К</tspan><tspan x="162.4" y="0">онтакте</tspan></text>
    </g>
  </g>
</svg>
