<svg xmlns="http://www.w3.org/2000/svg" viewBox="0 0 230.4 245.4">
  <defs>
    <style>
      .cls-1, .cls-2, .cls-4 {
        fill: #fff;
      }

      .cls-2, .cls-4 {
        isolation: isolate;
      }

      .cls-2 {
        font-size: 19.23px;
        font-family: ProximaNova-Regular, Proxima Nova;
      }

      .cls-3 {
        letter-spacing: -0.04em;
      }

      .cls-4 {
        font-size: 21.97px;
        font-family: ProximaNova-Bold, Proxima Nova;
        font-weight: 700;
      }

      .cls-5 {
        letter-spacing: -0.07em;
      }

      .cls-6 {
        letter-spacing: -0.02em;
      }

      .cls-7 {
        letter-spacing: -0.03em;
      }
    </style>
  </defs>
  <title>radioroom</title>
  <g id="Layer_2" data-name="Layer 2">
    <g id="Body">
      <g id="Contacts">
        <g id="Radioroom_Logo" data-name="Radioroom Logo">
          <g>
            <path class="cls-1" d="M175.8,30.4H79.7a5.5,5.5,0,0,0-5.5,5.5v74.7a5.5,5.5,0,0,0,5.5,5.5h96.1a5.5,5.5,0,0,0,5.5-5.5V35.9A5.5,5.5,0,0,0,175.8,30.4ZM113.5,98.3a25,25,0,1,1,25-25A25,25,0,0,1,113.5,98.3Zm42.8-35.7a7.1,7.1,0,1,1,7.1-7.1A7.1,7.1,0,0,1,156.3,62.6Z"/>
            <circle class="cls-1" cx="156.3" cy="30.4" r="7.1"/>
            <path class="cls-1" d="M92,112.6h14.3v9.3a1.3,1.3,0,0,1-1.4,1.4H93.4a1.3,1.3,0,0,1-1.4-1.4Z"/>
            <path class="cls-1" d="M149.2,112.6h14.3v9.3a1.3,1.3,0,0,1-1.4,1.4H150.6a1.3,1.3,0,0,1-1.4-1.4Z"/>
            <circle class="cls-1" cx="113.5" cy="3.6" r="3.6"/>
            <text class="cls-2" transform="translate(67.3 188)">РТУ МИР<tspan class="cls-3" x="79.7" y="0">Э</tspan><tspan x="92" y="0">А</tspan></text>
            <text class="cls-4" transform="translate(46.7 164.2)"><tspan class="cls-5">Р</tspan><tspan x="12.1" y="0">АДИО</tspan><tspan class="cls-6" x="76.3" y="0">Р</tspan><tspan x="89.5" y="0">УБКА</tspan></text>
            <rect class="cls-1" x="110.2" y="15.4" width="50" height="2" transform="translate(27.1 -66.9) rotate(30.7)"/>
            <text class="cls-2" transform="translate(0 240.2)">Наша страница В<tspan class="cls-7" x="151.5" y="0">К</tspan><tspan x="162.4" y="0">онтакте</tspan></text>
          </g>
        </g>
      </g>
    </g>
  </g>
</svg>
